<?xml version="1.0" encoding="UTF-8" standalone="no"?>
<!DOCTYPE svg PUBLIC "-//W3C//DTD SVG 1.1//EN" "http://www.w3.org/Graphics/SVG/1.1/DTD/svg11.dtd">
<svg width="100%" height="100%" viewBox="0 0 1224 1584" version="1.1" xmlns="http://www.w3.org/2000/svg" xmlns:xlink="http://www.w3.org/1999/xlink" xml:space="preserve" xmlns:serif="http://www.serif.com/" style="fill-rule:evenodd;clip-rule:evenodd;stroke-miterlimit:10;">
    <g id="Seite-1" serif:id="Seite 1" transform="matrix(2,0,0,2,0,0)">
        <rect x="0" y="0" width="612" height="792" style="fill:none;"/>
        <g id="powerline-grid" serif:id="powerline grid">
            <g transform="matrix(1,0,0,1,376.9479,441.4896)">
                <path d="M0,0L3.012,0L0,0Z" style="fill:white;fill-rule:nonzero;"/>
            </g>
            <g transform="matrix(-1,0,0,1,376.9478,441.4893)">
                <path d="M-3.012,0L0,0" style="fill:none;fill-rule:nonzero;stroke:black;stroke-width:1px;"/>
            </g>
            <g transform="matrix(1,0,0,1,378.6209,570.6653)">
                <path d="M0,-129.176C0,-129.176 0.438,-110.522 -0.167,-101.364C-0.617,-94.558 6.226,-92.111 9.035,-89.76C15.624,-84.248 50.656,-70.776 50.656,-70.776C50.656,-70.776 65.151,-65.129 55.362,-62.87C45.574,-60.611 -285.625,0 -285.625,0" style="fill:none;fill-rule:nonzero;stroke-width:5px;"/>
            </g>
        </g>
    </g>
</svg>
