<?xml version="1.0" encoding="UTF-8" standalone="no"?>
<!DOCTYPE svg PUBLIC "-//W3C//DTD SVG 1.1//EN" "http://www.w3.org/Graphics/SVG/1.1/DTD/svg11.dtd">
<svg width="100%" height="100%" viewBox="0 0 1224 1584" version="1.1" xmlns="http://www.w3.org/2000/svg" xmlns:xlink="http://www.w3.org/1999/xlink" xml:space="preserve" xmlns:serif="http://www.serif.com/" style="fill-rule:evenodd;clip-rule:evenodd;stroke-miterlimit:10;">
    <g id="Seite-1" serif:id="Seite 1" transform="matrix(2,0,0,2,0,0)">
        <rect x="0" y="0" width="612" height="792" style="fill:none;"/>
        <g id="Layer-1" serif:id="Layer 1">
        </g>
        <g transform="matrix(1,0,0,1,249.7012,309.207)">
            <g id="house">
                <path d="M0,160.941L47.435,180.706L264.847,144L264.847,38.109L168.282,-26.541L47.435,79.624L-2.867,58.608L-115.2,81.318L-199.701,46.306L-199.701,141.741L-129.882,173.365C-129.882,173.365 -104.47,187.482 -103.906,175.059C-103.341,162.635 -104.47,91.482 -104.47,91.482L-7.906,73.501L-8.471,160.941L0,160.941Z" style="fill:rgb(32,39,51);fill-rule:nonzero;"/>
            </g>
        </g>
        <g id="roof">
            <g transform="matrix(1,0,0,1,321.869,230.3338)">
                <path d="M0,136.906L87.079,61.368C87.079,61.368 93.291,52.897 107.408,61.368C121.526,69.838 208.491,127.438 208.491,127.438C208.491,127.438 219.785,125.744 213.573,120.097C207.361,114.45 98.938,43.297 98.938,43.297L-80.074,-21.644L-202.05,84.52L-24.733,158.497C-24.733,158.497 -24.951,158.55 0,136.906" style="fill:rgb(25,32,44);fill-rule:nonzero;"/>
            </g>
            <g transform="matrix(1,0,0,1,132.4525,390.5248)">
                <path d="M0,-70.4L114.382,-22.71L2.049,0L-82.452,-35.012L-82.452,-57.035L0,-70.4Z" style="fill:rgb(26,34,45);fill-rule:nonzero;"/>
            </g>
        </g>
        <g id="roof-garage" serif:id="roof garage">
        </g>
        <g id="windows">
            <g transform="matrix(0,1,1,0,472.9479,330.4773)">
                <path d="M-10.353,-43.671L43.671,-43.671L38.223,-10.353L10.447,-10.353L-10.353,-43.671Z" style="fill:rgb(255,237,184);fill-rule:nonzero;"/>
            </g>
            <g transform="matrix(1,0,0,1,465.4137,342.054)">
                <path d="M0,26.259L30.863,21.109L0.099,0.797L0,26.259Z" style="fill:rgb(255,237,184);fill-rule:nonzero;"/>
            </g>
            <g transform="matrix(1,0,0,1,429.2774,410.0068)">
                <path d="M0,-32.307L33.318,-37.707L33.318,-0.282L0,4.793" style="fill:rgb(255,237,184);fill-rule:nonzero;"/>
            </g>
            <g transform="matrix(0.99001,-0.140997,-0.140997,-0.99001,463.367325,372.809401)">
                <path d="M2.154,0.612L33.428,1.309L28.079,-36.248L-3.119,-36.415L2.154,0.612Z" style="fill:rgb(255,237,184);fill-rule:nonzero;"/>
            </g>
            <g transform="matrix(0,1,1,0,458.5484,414.3365)">
                <path d="M4.047,-29.271L34.353,-29.271L28.612,4.047L-1.035,4.047L4.047,-29.271Z" style="fill:rgb(255,237,184);fill-rule:nonzero;"/>
            </g>
            <g transform="matrix(0,1,1,0,493.1402,409.8822)">
                <path d="M2.972,-27.726L32.596,-27.534L27.608,2.773L-1.582,3.137L2.972,-27.726Z" style="fill:rgb(255,237,184);fill-rule:nonzero;"/>
            </g>
            <g transform="matrix(0,1,1,0,95.6307,392.5009)">
                <path d="M-5.364,-24.659L16.471,-24.659L24.659,-5.364L2.447,-5.364L-5.364,-24.659Z" style="fill:rgb(255,237,184);fill-rule:nonzero;"/>
            </g>
            <g transform="matrix(0,1,1,0,117.4412,401.8105)">
                <path d="M-5.81,-24.441L16.512,-24.443L24.446,-5.811L2.173,-5.811L-5.81,-24.441Z" style="fill:rgb(255,237,184);fill-rule:nonzero;"/>
            </g>
        </g>
        <g id="solar">
            <g transform="matrix(-0.760797,0.648989,0.648989,0.760797,256.217161,252.154123)">
                <path d="M-6.496,-26.971L23.699,-26.971L10.27,-2.675L-20.448,-2.622L-6.496,-26.971Z" style="fill:rgb(158,150,130);fill-rule:nonzero;"/>
            </g>
            <g transform="matrix(-0.760796,0.648991,0.648991,0.760796,231.723872,273.177691)">
                <path d="M-7.329,-27.013L23.403,-27.013L9.975,-2.717L-20.744,-2.663L-7.329,-27.013Z" style="fill:rgb(158,150,130);fill-rule:nonzero;"/>
            </g>
            <g transform="matrix(-0.760796,0.648991,0.648991,0.760796,207.029372,293.930591)">
                <path d="M-7.329,-27.013L23.403,-27.013L9.975,-2.717L-20.744,-2.663L-7.329,-27.013Z" style="fill:rgb(158,150,130);fill-rule:nonzero;"/>
            </g>
            <g transform="matrix(-0.760797,0.648989,0.648989,0.760797,283.887661,262.460023)">
                <path d="M-6.496,-26.971L23.699,-26.971L10.27,-2.675L-20.448,-2.622L-6.496,-26.971Z" style="fill:rgb(158,150,130);fill-rule:nonzero;"/>
            </g>
            <g transform="matrix(-0.760796,0.648991,0.648991,0.760796,259.394372,283.483491)">
                <path d="M-7.329,-27.013L23.403,-27.013L9.975,-2.717L-20.744,-2.663L-7.329,-27.013Z" style="fill:rgb(158,150,130);fill-rule:nonzero;"/>
            </g>
            <g transform="matrix(-0.760796,0.648991,0.648991,0.760796,234.699872,304.236491)">
                <path d="M-7.329,-27.013L23.403,-27.013L9.975,-2.717L-20.744,-2.663L-7.329,-27.013Z" style="fill:rgb(158,150,130);fill-rule:nonzero;"/>
            </g>
            <g transform="matrix(-0.760797,0.648989,0.648989,0.760797,311.699361,272.756023)">
                <path d="M-6.496,-26.971L23.699,-26.971L10.27,-2.675L-20.448,-2.622L-6.496,-26.971Z" style="fill:rgb(158,150,130);fill-rule:nonzero;"/>
            </g>
            <g transform="matrix(-0.760796,0.648991,0.648991,0.760796,287.206072,293.779591)">
                <path d="M-7.329,-27.013L23.403,-27.013L9.975,-2.717L-20.744,-2.663L-7.329,-27.013Z" style="fill:rgb(158,150,130);fill-rule:nonzero;"/>
            </g>
            <g transform="matrix(-0.760796,0.648991,0.648991,0.760796,262.511572,314.532491)">
                <path d="M-7.329,-27.013L23.403,-27.013L9.975,-2.717L-20.744,-2.663L-7.329,-27.013Z" style="fill:rgb(158,150,130);fill-rule:nonzero;"/>
            </g>
            <g transform="matrix(-0.760797,0.648989,0.648989,0.760797,339.369861,283.061923)">
                <path d="M-6.496,-26.971L23.699,-26.971L10.27,-2.675L-20.448,-2.622L-6.496,-26.971Z" style="fill:rgb(158,150,130);fill-rule:nonzero;"/>
            </g>
            <g transform="matrix(-0.760796,0.648991,0.648991,0.760796,314.876572,304.085491)">
                <path d="M-7.329,-27.013L23.403,-27.013L9.975,-2.717L-20.744,-2.663L-7.329,-27.013Z" style="fill:rgb(158,150,130);fill-rule:nonzero;"/>
            </g>
            <g transform="matrix(-0.760796,0.648991,0.648991,0.760796,290.182172,324.838291)">
                <path d="M-7.329,-27.013L23.403,-27.013L9.975,-2.717L-20.744,-2.663L-7.329,-27.013Z" style="fill:rgb(158,150,130);fill-rule:nonzero;"/>
            </g>
            <g transform="matrix(-0.760797,0.648989,0.648989,0.760797,366.797861,293.357923)">
                <path d="M-6.496,-26.971L23.699,-26.971L10.27,-2.675L-20.448,-2.622L-6.496,-26.971Z" style="fill:rgb(158,150,130);fill-rule:nonzero;"/>
            </g>
            <g transform="matrix(-0.760796,0.648991,0.648991,0.760796,342.304572,314.381491)">
                <path d="M-7.329,-27.013L23.403,-27.013L9.975,-2.717L-20.744,-2.663L-7.329,-27.013Z" style="fill:rgb(158,150,130);fill-rule:nonzero;"/>
            </g>
            <g transform="matrix(-0.760796,0.648991,0.648991,0.760796,317.610072,335.134391)">
                <path d="M-7.329,-27.013L23.403,-27.013L9.975,-2.717L-20.744,-2.663L-7.329,-27.013Z" style="fill:rgb(158,150,130);fill-rule:nonzero;"/>
            </g>
        </g>
        <g transform="matrix(0.002269,-0.999997,-0.999997,-0.002269,412.08733,342.201346)">
            <g id="powerline-solar" serif:id="powerline solar">
                <path d="M-66.658,33.482L-27.882,33.482C-22.287,33.294 -14.591,33.68 -5.884,36.163C8.362,40.226 14.984,48.013 20.074,52.691C24.297,56.674 29.335,63.115 33.558,67.099" style="fill:none;fill-rule:nonzero;stroke:rgb(127,127,127);stroke-width:5px;"/>
            </g>
        </g>
        <g transform="matrix(-0.984147,0.177357,0.177357,0.984147,348.934201,433.006072)">
            <g id="powerline-battery" serif:id="powerline battery">
                <path d="M-23.65,-2.114L0.189,-2.114" style="fill:none;fill-rule:nonzero;stroke:rgb(127,127,127);stroke-width:5px;"/>
            </g>
        </g>
        <g id="powerline-grid" serif:id="powerline grid">
            <g transform="matrix(1,0,0,1,376.9479,441.4896)">
                <path d="M0,0L3.012,0L0,0Z" style="fill:white;fill-rule:nonzero;"/>
            </g>
            <g transform="matrix(-1,0,0,1,376.9478,441.4893)">
                <path d="M-3.012,0L0,0" style="fill:none;fill-rule:nonzero;stroke:black;stroke-width:1px;"/>
            </g>
            <g transform="matrix(1,0,0,1,378.6209,570.6653)">
                <path d="M0,-129.176C0,-129.176 0.438,-110.522 -0.167,-101.364C-0.617,-94.558 6.226,-92.111 9.035,-89.76C15.624,-84.248 50.656,-70.776 50.656,-70.776C50.656,-70.776 65.151,-65.129 55.362,-62.87C45.574,-60.611 -285.625,0 -285.625,0" style="fill:none;fill-rule:nonzero;stroke:rgb(127,127,127);stroke-width:5px;"/>
            </g>
        </g>
        <g transform="matrix(1,0,0,1,384.2918,496.0289)">
            <g id="powerline-outside" serif:id="powerline outside">
                <path d="M0,-71.231L17.88,-74.445C17.88,-74.445 22.962,-73.504 23.244,-67.198C23.527,-60.893 24.709,-25.002 24.709,-25.002C24.709,-25.002 26.915,-21.081 30.303,-19.669C32.292,-18.84 50.535,-11.004 65.26,-4.674C71.14,-2.147 76.46,0.141 79.959,1.646C82.753,2.847 85.828,3.214 88.827,2.707L177.708,-12.328" style="fill:none;fill-rule:nonzero;stroke:rgb(127,127,127);stroke-width:5px;"/>
            </g>
        </g>
        <g transform="matrix(1,0,0,1,323.6776,437.005)">
            <g id="powerline-house" serif:id="powerline house">
                <path d="M0,-1.304L-30.212,5.472L-65.506,-6.776L-82.194,-6.01" style="fill:none;fill-rule:nonzero;stroke:rgb(127,127,127);stroke-width:5px;"/>
            </g>
        </g>
        <g transform="matrix(1,0,0,1,381.9422,409.3013)">
            <g id="inverter">
                <path d="M0,32.188L-6.643,32.188C-9.798,32.188 -12.357,29.63 -12.357,26.474L-12.357,5.714C-12.357,2.558 -9.798,0 -6.643,0L0,0C3.156,0 5.714,2.558 5.714,5.714L5.714,26.474C5.714,29.63 3.156,32.188 0,32.188" style="fill:rgb(13,21,28);fill-rule:nonzero;"/>
            </g>
        </g>
        <g id="car">
            <g transform="matrix(1,0,0,1,145.5888,484.2659)">
                <path d="M0,-58.01L0.207,0L33.524,-7.906C33.524,-7.906 46.188,-18.649 46.701,-23.436C47.214,-28.222 46.759,-28.606 45.383,-29.553C44.007,-30.501 43.745,-32.907 34.277,-33.412C24.809,-33.917 13.383,-44.427 13.383,-44.427L0,-58.01Z" style="fill:rgb(12,17,24);fill-rule:nonzero;"/>
            </g>
            <g transform="matrix(1,0,0,1,156.7132,478.9014)">
                <path d="M0,-24.471C0,-24.471 -8.659,-19.2 -4.8,-9.13C-0.941,0.941 7.624,0 7.624,0C7.624,0 14.682,-1.506 14.682,-3.953L14.682,-5.177L9.882,-5.177C9.882,-5.177 10.541,-10.165 9.788,-13.459C9.035,-16.753 8.376,-20.612 6.4,-22.212C4.424,-23.812 3.2,-25.412 0,-24.471" style="fill:rgb(22,27,37);fill-rule:nonzero;"/>
            </g>
            <g transform="matrix(1,0,0,1,145.3716,472.0199)">
                <path d="M0,-61.908C0,-61.908 12.095,-65.872 21.318,-66.06C30.542,-66.248 37.13,-62.672 39.953,-59.848C42.777,-57.025 52.753,-44.413 59.718,-40.46C66.683,-36.507 79.294,-31.989 79.671,-17.307C80.047,-2.625 66.118,-3.378 66.118,-3.378L33.742,4.34C33.742,4.34 45.6,-5.825 46.165,-12.789C46.73,-19.754 35.059,-19.378 35.059,-19.378C35.059,-19.378 29.412,-19.754 21.506,-24.084C13.6,-28.413 0.217,-45.764 0.217,-45.764L0,-61.908Z" style="fill:rgb(22,27,37);fill-rule:nonzero;"/>
            </g>
        </g>
        <g id="battery">
            <g transform="matrix(1,0,0,1,334.2187,456.8306)">
                <path d="M0,-53.506L13.976,-54.824C13.976,-54.824 15.294,-55.153 15.435,-53.506C15.661,-50.874 15.438,-3.812 15.438,-3.812C15.438,-3.812 14.871,-2.306 13.176,-1.93C11.482,-1.553 -12.612,1.647 -12.612,1.647C-12.612,1.647 -15.247,1.27 -15.435,-1.365C-15.623,-4 -15.435,-49.93 -15.435,-49.93C-15.435,-49.93 -15.591,-51.563 -13.52,-52.128C-11.45,-52.693 0,-53.506 0,-53.506" style="fill:rgb(13,24,36);fill-rule:nonzero;"/>
            </g>
            <g transform="matrix(1,0,0,1,336.2893,438.5244)">
                <path d="M0,-19.388L-6.212,-7.153L-2.095,-7.153L-2.095,0L3.765,-10.729L0.188,-9.694L0,-19.388Z" style="fill:rgb(104,204,248);fill-rule:nonzero;"/>
            </g>
        </g>
    </g>
</svg>
